<svg width="73" height="499" viewBox="0 0 73 499" fill="none" xmlns="http://www.w3.org/2000/svg">
<mask id="path-1-inside-1_163_1335" fill="white">
<path d="M6 21H67V499H6V21Z"/>
</mask>
<path d="M6 21H67V499H6V21Z" fill="url(#paint0_linear_163_1335)"/>
<path d="M66 21V499H68V21H66ZM7 499V21H5V499H7Z" fill="black" mask="url(#path-1-inside-1_163_1335)"/>
<mask id="path-3-outside-2_163_1335" maskUnits="userSpaceOnUse" x="0" y="0" width="73" height="22" fill="black">
<rect fill="white" width="73" height="22"/>
<path d="M1 1H72V21H1V1Z"/>
</mask>
<g filter="url(#filter0_ii_163_1335)">
<path d="M1 1H72V21H1V1Z" fill="url(#paint1_linear_163_1335)"/>
</g>
<path d="M1 1V0H0V1H1ZM72 1H73V0H72V1ZM72 21V22H73V21H72ZM1 21H0V22H1V21ZM1 2H72V0H1V2ZM71 1V21H73V1H71ZM72 20H1V22H72V20ZM2 21V1H0V21H2Z" fill="black" mask="url(#path-3-outside-2_163_1335)"/>
<defs>
<filter id="filter0_ii_163_1335" x="0" y="0" width="73" height="22" filterUnits="userSpaceOnUse" color-interpolation-filters="sRGB">
<feFlood flood-opacity="0" result="BackgroundImageFix"/>
<feBlend mode="normal" in="SourceGraphic" in2="BackgroundImageFix" result="shape"/>
<feColorMatrix in="SourceAlpha" type="matrix" values="0 0 0 0 0 0 0 0 0 0 0 0 0 0 0 0 0 0 127 0" result="hardAlpha"/>
<feOffset dy="1"/>
<feComposite in2="hardAlpha" operator="arithmetic" k2="-1" k3="1"/>
<feColorMatrix type="matrix" values="0 0 0 0 1 0 0 0 0 1 0 0 0 0 1 0 0 0 0.46 0"/>
<feBlend mode="normal" in2="shape" result="effect1_innerShadow_163_1335"/>
<feColorMatrix in="SourceAlpha" type="matrix" values="0 0 0 0 0 0 0 0 0 0 0 0 0 0 0 0 0 0 127 0" result="hardAlpha"/>
<feOffset dy="-1"/>
<feComposite in2="hardAlpha" operator="arithmetic" k2="-1" k3="1"/>
<feColorMatrix type="matrix" values="0 0 0 0 0 0 0 0 0 0 0 0 0 0 0 0 0 0 0.46 0"/>
<feBlend mode="normal" in2="effect1_innerShadow_163_1335" result="effect2_innerShadow_163_1335"/>
</filter>
<linearGradient id="paint0_linear_163_1335" x1="6" y1="185.313" x2="67" y2="185.313" gradientUnits="userSpaceOnUse">
<stop offset="0.0248477" stop-color="#1CB44E"/>
<stop offset="0.254579" stop-color="#52E783"/>
<stop offset="0.639165" stop-color="#20A54C"/>
<stop offset="1" stop-color="#007A28"/>
</linearGradient>
<linearGradient id="paint1_linear_163_1335" x1="1" y1="7.875" x2="72" y2="7.875" gradientUnits="userSpaceOnUse">
<stop stop-color="#9DFBBC"/>
<stop offset="1" stop-color="#037228"/>
</linearGradient>
</defs>
</svg>
